# xmcd CD database file
#
# Track frame offsets:
#	150
#	19339
#	36563
#	57190
#	78739
#	97089
#	114350
#	133032
#	153156
#	171888
#	188388
#	214296
#	229992
#	247224
#	263688
#	280147
#
# Disc length: 3951 seconds
#
# Revision: 0
# Processed by: cddbd v1.4PL0 Copyright (c) Steve Scherf et al.
# Submitted via: CDex 1.50beta9
#
DISCID=e60f6d10
DTITLE=Other - 90`s Love Songs
DYEAR=2002
DGENRE=Rhythmic Soul
TTITLE0=When You Say Nothing At All
TTITLE1=Show Me Heaven
TTITLE2=High
TTITLE3=My Destiny
TTITLE4=Turn Back Time
TTITLE5=Love Is All Around
TTITLE6=Can't Let Her Go (original mix)
TTITLE7=Senza Una Donna
TTITLE8=Kiss The Rain
TTITLE9=Don't Let The Sun Go Down On Me
TTITLE10=More Than Words
TTITLE11=Touch Me (All Night Long)
TTITLE12=I Love Your Smile
TTITLE13=When Susannah Cries
TTITLE14=Love Me For A Reason
TTITLE15=You Do Somthing To Me
EXTD=YEAR: 2002
EXTT0=
EXTT1=
EXTT2=
EXTT3=
EXTT4=
EXTT5=
EXTT6=
EXTT7=
EXTT8=
EXTT9=
EXTT10=
EXTT11=
EXTT12=
EXTT13=
EXTT14=
EXTT15=
PLAYORDER=
